<svg width="41" height="40" viewBox="0 0 41 40" fill="none" xmlns="http://www.w3.org/2000/svg">
<path d="M38 30H33V25H30.5V30H25.5V32.5H30.5V37.5H33V32.5H38V30Z" fill="#0F1959" fill-opacity="0.5"/>
<path d="M38 30H33V25H30.5V30H25.5V32.5H30.5V37.5H33V32.5H38V30Z" fill="#0F1959" fill-opacity="0.5"/>
<path d="M20.5 35.0001H10.5V5.00006H20.5V12.5001C20.502 13.1625 20.766 13.7972 21.2344 14.2656C21.7028 14.7341 22.3376 14.9981 23 15.0001H30.5V20.0001H33V12.5001C33.0044 12.3358 32.9732 12.1725 32.9084 12.0214C32.8437 11.8704 32.747 11.7352 32.625 11.6251L23.875 2.87506C23.765 2.75299 23.6297 2.65625 23.4787 2.59151C23.3276 2.52676 23.1643 2.49556 23 2.50006H10.5C9.83757 2.50204 9.20283 2.76606 8.73442 3.23448C8.26601 3.70289 8.00198 4.33763 8 5.00006V35.0001C8.00198 35.6625 8.26601 36.2972 8.73442 36.7656C9.20283 37.2341 9.83757 37.4981 10.5 37.5001H20.5V35.0001ZM23 5.50006L30 12.5001H23V5.50006Z" fill="#0F1959" fill-opacity="0.5"/>
<path d="M20.5 35.0001H10.5V5.00006H20.5V12.5001C20.502 13.1625 20.766 13.7972 21.2344 14.2656C21.7028 14.7341 22.3376 14.9981 23 15.0001H30.5V20.0001H33V12.5001C33.0044 12.3358 32.9732 12.1725 32.9084 12.0214C32.8437 11.8704 32.747 11.7352 32.625 11.6251L23.875 2.87506C23.765 2.75299 23.6297 2.65625 23.4787 2.59151C23.3276 2.52676 23.1643 2.49556 23 2.50006H10.5C9.83757 2.50204 9.20283 2.76606 8.73442 3.23448C8.26601 3.70289 8.00198 4.33763 8 5.00006V35.0001C8.00198 35.6625 8.26601 36.2972 8.73442 36.7656C9.20283 37.2341 9.83757 37.4981 10.5 37.5001H20.5V35.0001ZM23 5.50006L30 12.5001H23V5.50006Z" fill="#0F1959" fill-opacity="0.5"/>
</svg>
