<svg width="20" height="21" viewBox="0 0 20 21" fill="none" xmlns="http://www.w3.org/2000/svg">
<g clip-path="url(#clip0_1997_3834)">
<path d="M18.0611 15.7943C17.5254 15.3167 17.0564 14.7692 16.6667 14.1666C16.2412 13.3346 15.9863 12.4261 15.9167 11.4943V8.74989C15.9204 7.28634 15.3895 5.87182 14.4238 4.7721C13.458 3.67238 12.124 2.96315 10.6722 2.77767V2.061C10.6722 1.8643 10.5941 1.67565 10.455 1.53657C10.3159 1.39748 10.1273 1.31934 9.93057 1.31934C9.73387 1.31934 9.54522 1.39748 9.40613 1.53657C9.26704 1.67565 9.1889 1.8643 9.1889 2.061V2.78878C7.75016 2.98763 6.43222 3.70114 5.4792 4.79717C4.52617 5.8932 4.00264 7.29747 4.00557 8.74989V11.4943C3.93599 12.4261 3.681 13.3346 3.25557 14.1666C2.87273 14.7679 2.41123 15.3153 1.88335 15.7943C1.82409 15.8464 1.77659 15.9105 1.74402 15.9823C1.71145 16.0542 1.69456 16.1321 1.69446 16.211V16.9666C1.69446 17.1139 1.75299 17.2552 1.85718 17.3594C1.96136 17.4636 2.10267 17.5221 2.25001 17.5221H17.6945C17.8418 17.5221 17.9831 17.4636 18.0873 17.3594C18.1915 17.2552 18.25 17.1139 18.25 16.9666V16.211C18.2499 16.1321 18.233 16.0542 18.2005 15.9823C18.1679 15.9105 18.1204 15.8464 18.0611 15.7943ZM2.85001 16.411C3.36691 15.9117 3.82201 15.3521 4.20557 14.7443C4.74147 13.7396 5.05414 12.631 5.12224 11.4943V8.74989C5.1002 8.0988 5.20942 7.44993 5.44337 6.84193C5.67733 6.23392 6.03124 5.67922 6.48404 5.21084C6.93684 4.74246 7.47926 4.36998 8.079 4.1156C8.67875 3.86121 9.32355 3.73012 9.97501 3.73012C10.6265 3.73012 11.2713 3.86121 11.871 4.1156C12.4708 4.36998 13.0132 4.74246 13.466 5.21084C13.9188 5.67922 14.2727 6.23392 14.5067 6.84193C14.7406 7.44993 14.8498 8.0988 14.8278 8.74989V11.4943C14.8959 12.631 15.2086 13.7396 15.7445 14.7443C16.128 15.3521 16.5831 15.9117 17.1 16.411H2.85001Z" fill="white" stroke="white"/>
<path d="M10 19.3777C10.35 19.3697 10.6858 19.2381 10.9481 19.0063C11.2104 18.7745 11.3823 18.4574 11.4333 18.1111H8.51111C8.56359 18.4668 8.74351 18.7914 9.01739 19.0244C9.29126 19.2574 9.64046 19.3829 10 19.3777Z" fill="white"/>
</g>
<defs>
<clipPath id="clip0_1997_3834">
<rect width="20" height="20" fill="white" transform="translate(0 0.333252)"/>
</clipPath>
</defs>
</svg>
