<?xml version="1.0" encoding="UTF-8"?>
<!DOCTYPE svg PUBLIC "-//W3C//DTD SVG 1.1//EN" "http://www.w3.org/Graphics/SVG/1.1/DTD/svg11.dtd">
<svg xmlns="http://www.w3.org/2000/svg" version="1.1" width="512px" height="512px" style="shape-rendering:geometricPrecision; text-rendering:geometricPrecision; image-rendering:optimizeQuality; fill-rule:evenodd; clip-rule:evenodd" xmlns:xlink="http://www.w3.org/1999/xlink">
<g><path style="opacity:1" fill="#1d2036" d="M 56.5,-0.5 C 128.5,-0.5 200.5,-0.5 272.5,-0.5C 297.173,23.8403 321.173,48.8403 344.5,74.5C 344.062,74.4346 343.728,74.6012 343.5,75C 346.667,78.1667 349.833,81.3333 353,84.5C 353.399,84.2716 353.565,83.9382 353.5,83.5C 368.133,98.3008 382.633,113.301 397,128.5C 400.385,132.217 403.385,136.217 406,140.5C 406.667,244.833 406.667,349.167 406,453.5C 402.661,474.35 392.161,490.517 374.5,502C 366.809,506.279 358.809,509.446 350.5,511.5C 252.5,511.5 154.5,511.5 56.5,511.5C 26.6299,504.797 8.12995,486.464 1,456.5C 0.333333,322.5 0.333333,188.5 1,54.5C 8.12995,24.5361 26.6299,6.20272 56.5,-0.5 Z M 63.5,24.5 C 127.167,24.5 190.833,24.5 254.5,24.5C 254.333,52.1687 254.5,79.8353 255,107.5C 258.576,133.411 273.076,149.578 298.5,156C 325.808,157.407 353.141,157.907 380.5,157.5C 380.667,255.834 380.5,354.167 380,452.5C 375.115,471.537 362.948,482.704 343.5,486C 250.167,486.667 156.833,486.667 63.5,486C 42.3333,482.167 29.8333,469.667 26,448.5C 25.3333,319.833 25.3333,191.167 26,62.5C 30.0131,41.3209 42.5131,28.6542 63.5,24.5 Z M 280.5,45.5 C 307.966,73.8013 335.3,102.301 362.5,131C 343.5,131.667 324.5,131.667 305.5,131C 292.437,128.27 284.27,120.437 281,107.5C 280.5,86.836 280.333,66.1694 280.5,45.5 Z"/></g>
<g><path style="opacity:0.769" fill="#8d9070" d="M 344.5,74.5 C 347.833,77.1667 350.833,80.1667 353.5,83.5C 353.565,83.9382 353.399,84.2716 353,84.5C 349.833,81.3333 346.667,78.1667 343.5,75C 343.728,74.6012 344.062,74.4346 344.5,74.5 Z"/></g>
<g><path style="opacity:1" fill="#1e2035" d="M 216.5,181.5 C 215.501,225.997 215.168,270.664 215.5,315.5C 216.552,315.649 217.552,315.483 218.5,315C 219.738,314.31 219.738,313.81 218.5,313.5C 234.595,295.235 251.261,277.402 268.5,260C 282.546,255.767 289.046,260.933 288,275.5C 262.869,303.633 237.369,331.466 211.5,359C 206.137,362.246 200.803,362.246 195.5,359C 170.783,332.405 145.949,305.905 121,279.5C 116.574,271.254 118.074,264.42 125.5,259C 129.167,258.333 132.833,258.333 136.5,259C 137.416,259.278 138.082,259.778 138.5,260.5C 138.062,260.435 137.728,260.601 137.5,261C 139,262.5 140.5,264 142,265.5C 142.399,265.272 142.565,264.938 142.5,264.5C 158.5,281.5 174.5,298.5 190.5,315.5C 191.809,272.346 191.809,227.679 190.5,181.5C 193.54,169.976 200.54,166.809 211.5,172C 214.361,174.557 216.028,177.723 216.5,181.5 Z"/></g>
<g><path style="opacity:0.545" fill="#f0a0df" d="M 190.5,181.5 C 191.809,227.679 191.809,272.346 190.5,315.5C 190.5,270.833 190.5,226.167 190.5,181.5 Z"/></g>
<g><path style="opacity:0.188" fill="#59a9fc" d="M 216.5,181.5 C 216.333,225.835 216.5,270.168 217,314.5C 217.383,313.944 217.883,313.611 218.5,313.5C 219.738,313.81 219.738,314.31 218.5,315C 217.552,315.483 216.552,315.649 215.5,315.5C 215.168,270.664 215.501,225.997 216.5,181.5 Z"/></g>
<g><path style="opacity:0.078" fill="#73ba63" d="M 138.5,260.5 C 140.167,261.5 141.5,262.833 142.5,264.5C 142.565,264.938 142.399,265.272 142,265.5C 140.5,264 139,262.5 137.5,261C 137.728,260.601 138.062,260.435 138.5,260.5 Z"/></g>
<g><path style="opacity:1" fill="#1e1d31" d="M 100.5,400.5 C 168.834,400.333 237.167,400.5 305.5,401C 317.09,403.679 320.59,410.512 316,421.5C 314.269,423.617 312.102,425.117 309.5,426C 238.833,426.667 168.167,426.667 97.5,426C 88.5117,421.203 86.5117,414.369 91.5,405.5C 94.1543,403.011 97.1543,401.344 100.5,400.5 Z"/></g>
</svg>
