<svg width="41" height="40" viewBox="0 0 41 40" fill="none" xmlns="http://www.w3.org/2000/svg">
<path d="M9.5 13.5C9.5 12.3065 9.97411 11.1619 10.818 10.318C11.6619 9.47411 12.8065 9 14 9C15.1935 9 16.3381 9.47411 17.182 10.318C18.0259 11.1619 18.5 12.3065 18.5 13.5C18.5 14.6935 18.0259 15.8381 17.182 16.682C16.3381 17.5259 15.1935 18 14 18C12.8065 18 11.6619 17.5259 10.818 16.682C9.97411 15.8381 9.5 14.6935 9.5 13.5ZM14 7C12.2761 7 10.6228 7.68482 9.40381 8.90381C8.18482 10.1228 7.5 11.7761 7.5 13.5C7.5 15.2239 8.18482 16.8772 9.40381 18.0962C10.6228 19.3152 12.2761 20 14 20C15.7239 20 17.3772 19.3152 18.5962 18.0962C19.8152 16.8772 20.5 15.2239 20.5 13.5C20.5 11.7761 19.8152 10.1228 18.5962 8.90381C17.3772 7.68482 15.7239 7 14 7ZM20.5 22C21.296 22 22.036 22.232 22.66 22.632C22.1165 23.0519 21.7349 23.6469 21.58 24.316C21.2579 24.109 20.8829 23.9992 20.5 24H7.5C6.96957 24 6.46086 24.2107 6.08579 24.5858C5.71071 24.9609 5.5 25.4696 5.5 26V26.156L5.514 26.322C5.62237 27.2807 5.96437 28.1982 6.51 28.994C7.484 30.402 9.526 32 14 32C18.474 32 20.516 30.402 21.49 28.994L21.5 28.978V29C21.5 29.768 21.788 30.47 22.264 31C22.1148 31.167 21.9847 31.3502 21.876 31.546C20.288 32.942 17.812 34 14 34C8.974 34 6.266 32.16 4.864 30.132C4.12565 29.0565 3.66527 27.8149 3.524 26.518C3.51205 26.4016 3.50404 26.2849 3.5 26.168V26C3.5 24.9391 3.92143 23.9217 4.67157 23.1716C5.42172 22.4214 6.43913 22 7.5 22H20.5ZM26.5 15C26.5 14.2044 26.8161 13.4413 27.3787 12.8787C27.9413 12.3161 28.7044 12 29.5 12C30.2956 12 31.0587 12.3161 31.6213 12.8787C32.1839 13.4413 32.5 14.2044 32.5 15C32.5 15.7956 32.1839 16.5587 31.6213 17.1213C31.0587 17.6839 30.2956 18 29.5 18C28.7044 18 27.9413 17.6839 27.3787 17.1213C26.8161 16.5587 26.5 15.7956 26.5 15ZM29.5 10C28.1739 10 26.9021 10.5268 25.9645 11.4645C25.0268 12.4021 24.5 13.6739 24.5 15C24.5 16.3261 25.0268 17.5979 25.9645 18.5355C26.9021 19.4732 28.1739 20 29.5 20C30.8261 20 32.0979 19.4732 33.0355 18.5355C33.9732 17.5979 34.5 16.3261 34.5 15C34.5 13.6739 33.9732 12.4021 33.0355 11.4645C32.0979 10.5268 30.8261 10 29.5 10ZM24.5 24C24.2348 24 23.9804 24.1054 23.7929 24.2929C23.6054 24.4804 23.5 24.7348 23.5 25C23.5 25.2652 23.6054 25.5196 23.7929 25.7071C23.9804 25.8946 24.2348 26 24.5 26H36.5C36.7652 26 37.0196 25.8946 37.2071 25.7071C37.3946 25.5196 37.5 25.2652 37.5 25C37.5 24.7348 37.3946 24.4804 37.2071 24.2929C37.0196 24.1054 36.7652 24 36.5 24H24.5ZM24.5 28C24.2348 28 23.9804 28.1054 23.7929 28.2929C23.6054 28.4804 23.5 28.7348 23.5 29C23.5 29.2652 23.6054 29.5196 23.7929 29.7071C23.9804 29.8946 24.2348 30 24.5 30H36.5C36.7652 30 37.0196 29.8946 37.2071 29.7071C37.3946 29.5196 37.5 29.2652 37.5 29C37.5 28.7348 37.3946 28.4804 37.2071 28.2929C37.0196 28.1054 36.7652 28 36.5 28H24.5ZM24.5 32C24.2348 32 23.9804 32.1054 23.7929 32.2929C23.6054 32.4804 23.5 32.7348 23.5 33C23.5 33.2652 23.6054 33.5196 23.7929 33.7071C23.9804 33.8946 24.2348 34 24.5 34H36.5C36.7652 34 37.0196 33.8946 37.2071 33.7071C37.3946 33.5196 37.5 33.2652 37.5 33C37.5 32.7348 37.3946 32.4804 37.2071 32.2929C37.0196 32.1054 36.7652 32 36.5 32H24.5Z" fill="#0F1959" fill-opacity="0.5"/>
<path d="M9.5 13.5C9.5 12.3065 9.97411 11.1619 10.818 10.318C11.6619 9.47411 12.8065 9 14 9C15.1935 9 16.3381 9.47411 17.182 10.318C18.0259 11.1619 18.5 12.3065 18.5 13.5C18.5 14.6935 18.0259 15.8381 17.182 16.682C16.3381 17.5259 15.1935 18 14 18C12.8065 18 11.6619 17.5259 10.818 16.682C9.97411 15.8381 9.5 14.6935 9.5 13.5ZM14 7C12.2761 7 10.6228 7.68482 9.40381 8.90381C8.18482 10.1228 7.5 11.7761 7.5 13.5C7.5 15.2239 8.18482 16.8772 9.40381 18.0962C10.6228 19.3152 12.2761 20 14 20C15.7239 20 17.3772 19.3152 18.5962 18.0962C19.8152 16.8772 20.5 15.2239 20.5 13.5C20.5 11.7761 19.8152 10.1228 18.5962 8.90381C17.3772 7.68482 15.7239 7 14 7ZM20.5 22C21.296 22 22.036 22.232 22.66 22.632C22.1165 23.0519 21.7349 23.6469 21.58 24.316C21.2579 24.109 20.8829 23.9992 20.5 24H7.5C6.96957 24 6.46086 24.2107 6.08579 24.5858C5.71071 24.9609 5.5 25.4696 5.5 26V26.156L5.514 26.322C5.62237 27.2807 5.96437 28.1982 6.51 28.994C7.484 30.402 9.526 32 14 32C18.474 32 20.516 30.402 21.49 28.994L21.5 28.978V29C21.5 29.768 21.788 30.47 22.264 31C22.1148 31.167 21.9847 31.3502 21.876 31.546C20.288 32.942 17.812 34 14 34C8.974 34 6.266 32.16 4.864 30.132C4.12565 29.0565 3.66527 27.8149 3.524 26.518C3.51205 26.4016 3.50404 26.2849 3.5 26.168V26C3.5 24.9391 3.92143 23.9217 4.67157 23.1716C5.42172 22.4214 6.43913 22 7.5 22H20.5ZM26.5 15C26.5 14.2044 26.8161 13.4413 27.3787 12.8787C27.9413 12.3161 28.7044 12 29.5 12C30.2956 12 31.0587 12.3161 31.6213 12.8787C32.1839 13.4413 32.5 14.2044 32.5 15C32.5 15.7956 32.1839 16.5587 31.6213 17.1213C31.0587 17.6839 30.2956 18 29.5 18C28.7044 18 27.9413 17.6839 27.3787 17.1213C26.8161 16.5587 26.5 15.7956 26.5 15ZM29.5 10C28.1739 10 26.9021 10.5268 25.9645 11.4645C25.0268 12.4021 24.5 13.6739 24.5 15C24.5 16.3261 25.0268 17.5979 25.9645 18.5355C26.9021 19.4732 28.1739 20 29.5 20C30.8261 20 32.0979 19.4732 33.0355 18.5355C33.9732 17.5979 34.5 16.3261 34.5 15C34.5 13.6739 33.9732 12.4021 33.0355 11.4645C32.0979 10.5268 30.8261 10 29.5 10ZM24.5 24C24.2348 24 23.9804 24.1054 23.7929 24.2929C23.6054 24.4804 23.5 24.7348 23.5 25C23.5 25.2652 23.6054 25.5196 23.7929 25.7071C23.9804 25.8946 24.2348 26 24.5 26H36.5C36.7652 26 37.0196 25.8946 37.2071 25.7071C37.3946 25.5196 37.5 25.2652 37.5 25C37.5 24.7348 37.3946 24.4804 37.2071 24.2929C37.0196 24.1054 36.7652 24 36.5 24H24.5ZM24.5 28C24.2348 28 23.9804 28.1054 23.7929 28.2929C23.6054 28.4804 23.5 28.7348 23.5 29C23.5 29.2652 23.6054 29.5196 23.7929 29.7071C23.9804 29.8946 24.2348 30 24.5 30H36.5C36.7652 30 37.0196 29.8946 37.2071 29.7071C37.3946 29.5196 37.5 29.2652 37.5 29C37.5 28.7348 37.3946 28.4804 37.2071 28.2929C37.0196 28.1054 36.7652 28 36.5 28H24.5ZM24.5 32C24.2348 32 23.9804 32.1054 23.7929 32.2929C23.6054 32.4804 23.5 32.7348 23.5 33C23.5 33.2652 23.6054 33.5196 23.7929 33.7071C23.9804 33.8946 24.2348 34 24.5 34H36.5C36.7652 34 37.0196 33.8946 37.2071 33.7071C37.3946 33.5196 37.5 33.2652 37.5 33C37.5 32.7348 37.3946 32.4804 37.2071 32.2929C37.0196 32.1054 36.7652 32 36.5 32H24.5Z" fill="#0F1959" fill-opacity="0.5"/>
</svg>
