<svg width="41" height="40" viewBox="0 0 41 40" fill="none" xmlns="http://www.w3.org/2000/svg">
<path d="M33.5 32C34.2956 32 35.0587 31.6839 35.6213 31.1213C36.1839 30.5587 36.5 29.7956 36.5 29V25C36.5 24.2043 36.1839 23.4413 35.6213 22.8787C35.0587 22.3161 34.2956 22 33.5 22H29.5C28.7043 22 27.9413 22.3161 27.3787 22.8787C26.8161 23.4413 26.5 24.2043 26.5 25V29C26.5 29.7956 26.8161 30.5587 27.3787 31.1213C27.9413 31.6839 28.7043 32 29.5 32H33.5ZM34.5 29C34.5 29.2652 34.3946 29.5196 34.2071 29.7071C34.0196 29.8946 33.7652 30 33.5 30H29.5C29.2348 30 28.9804 29.8946 28.7929 29.7071C28.6054 29.5196 28.5 29.2652 28.5 29V25C28.5 24.7348 28.6054 24.4804 28.7929 24.2929C28.9804 24.1054 29.2348 24 29.5 24H33.5C33.7652 24 34.0196 24.1054 34.2071 24.2929C34.3946 24.4804 34.5 24.7348 34.5 25V29ZM21.5 30C21.7652 30 22.0196 29.8946 22.2071 29.7071C22.3946 29.5196 22.5 29.2652 22.5 29C22.5 28.7348 22.3946 28.4804 22.2071 28.2929C22.0196 28.1054 21.7652 28 21.5 28L5.49999 28C5.23478 28 4.98042 28.1054 4.79288 28.2929C4.60535 28.4804 4.49999 28.7348 4.49999 29C4.49999 29.2652 4.60535 29.5196 4.79288 29.7071C4.98042 29.8946 5.23478 30 5.49999 30L21.5 30ZM21.5 26C21.7652 26 22.0196 25.8946 22.2071 25.7071C22.3946 25.5196 22.5 25.2652 22.5 25C22.5 24.7348 22.3946 24.4804 22.2071 24.2929C22.0196 24.1054 21.7652 24 21.5 24L9.49999 24C9.23478 24 8.98042 24.1054 8.79289 24.2929C8.60535 24.4804 8.49999 24.7348 8.49999 25C8.49999 25.2652 8.60535 25.5196 8.79289 25.7071C8.98042 25.8946 9.23478 26 9.49999 26H21.5ZM33.5 18C34.2956 18 35.0587 17.6839 35.6213 17.1213C36.1839 16.5587 36.5 15.7956 36.5 15L36.5 11C36.5 10.2043 36.1839 9.44128 35.6213 8.87867C35.0587 8.31606 34.2956 7.99999 33.5 7.99999H29.5C28.7043 7.99999 27.9413 8.31606 27.3787 8.87867C26.8161 9.44128 26.5 10.2043 26.5 11V15C26.5 15.7956 26.8161 16.5587 27.3787 17.1213C27.9413 17.6839 28.7043 18 29.5 18H33.5ZM34.5 15C34.5 15.2652 34.3946 15.5196 34.2071 15.7071C34.0196 15.8946 33.7652 16 33.5 16H29.5C29.2348 16 28.9804 15.8946 28.7929 15.7071C28.6054 15.5196 28.5 15.2652 28.5 15V11C28.5 10.7348 28.6054 10.4804 28.7929 10.2929C28.9804 10.1054 29.2348 9.99999 29.5 9.99999H33.5C33.7652 9.99999 34.0196 10.1054 34.2071 10.2929C34.3946 10.4804 34.5 10.7348 34.5 11L34.5 15ZM21.5 16C21.7652 16 22.0196 15.8946 22.2071 15.7071C22.3946 15.5196 22.5 15.2652 22.5 15C22.5 14.7348 22.3946 14.4804 22.2071 14.2929C22.0196 14.1054 21.7652 14 21.5 14L5.49999 14C5.23478 14 4.98042 14.1054 4.79288 14.2929C4.60535 14.4804 4.49999 14.7348 4.49999 15C4.49999 15.2652 4.60535 15.5196 4.79288 15.7071C4.98042 15.8946 5.23478 16 5.49999 16L21.5 16ZM21.5 12C21.7652 12 22.0196 11.8946 22.2071 11.7071C22.3946 11.5196 22.5 11.2652 22.5 11C22.5 10.7348 22.3946 10.4804 22.2071 10.2929C22.0196 10.1054 21.7652 9.99999 21.5 9.99999H9.49999C9.23478 9.99999 8.98042 10.1054 8.79289 10.2929C8.60535 10.4804 8.49999 10.7348 8.49999 11C8.49999 11.2652 8.60535 11.5196 8.79289 11.7071C8.98042 11.8946 9.23478 12 9.49999 12H21.5Z" fill="#0F1959" fill-opacity="0.5"/>
<path d="M33.5 32C34.2956 32 35.0587 31.6839 35.6213 31.1213C36.1839 30.5587 36.5 29.7956 36.5 29V25C36.5 24.2043 36.1839 23.4413 35.6213 22.8787C35.0587 22.3161 34.2956 22 33.5 22H29.5C28.7043 22 27.9413 22.3161 27.3787 22.8787C26.8161 23.4413 26.5 24.2043 26.5 25V29C26.5 29.7956 26.8161 30.5587 27.3787 31.1213C27.9413 31.6839 28.7043 32 29.5 32H33.5ZM34.5 29C34.5 29.2652 34.3946 29.5196 34.2071 29.7071C34.0196 29.8946 33.7652 30 33.5 30H29.5C29.2348 30 28.9804 29.8946 28.7929 29.7071C28.6054 29.5196 28.5 29.2652 28.5 29V25C28.5 24.7348 28.6054 24.4804 28.7929 24.2929C28.9804 24.1054 29.2348 24 29.5 24H33.5C33.7652 24 34.0196 24.1054 34.2071 24.2929C34.3946 24.4804 34.5 24.7348 34.5 25V29ZM21.5 30C21.7652 30 22.0196 29.8946 22.2071 29.7071C22.3946 29.5196 22.5 29.2652 22.5 29C22.5 28.7348 22.3946 28.4804 22.2071 28.2929C22.0196 28.1054 21.7652 28 21.5 28L5.49999 28C5.23478 28 4.98042 28.1054 4.79288 28.2929C4.60535 28.4804 4.49999 28.7348 4.49999 29C4.49999 29.2652 4.60535 29.5196 4.79288 29.7071C4.98042 29.8946 5.23478 30 5.49999 30L21.5 30ZM21.5 26C21.7652 26 22.0196 25.8946 22.2071 25.7071C22.3946 25.5196 22.5 25.2652 22.5 25C22.5 24.7348 22.3946 24.4804 22.2071 24.2929C22.0196 24.1054 21.7652 24 21.5 24L9.49999 24C9.23478 24 8.98042 24.1054 8.79289 24.2929C8.60535 24.4804 8.49999 24.7348 8.49999 25C8.49999 25.2652 8.60535 25.5196 8.79289 25.7071C8.98042 25.8946 9.23478 26 9.49999 26H21.5ZM33.5 18C34.2956 18 35.0587 17.6839 35.6213 17.1213C36.1839 16.5587 36.5 15.7956 36.5 15L36.5 11C36.5 10.2043 36.1839 9.44128 35.6213 8.87867C35.0587 8.31606 34.2956 7.99999 33.5 7.99999H29.5C28.7043 7.99999 27.9413 8.31606 27.3787 8.87867C26.8161 9.44128 26.5 10.2043 26.5 11V15C26.5 15.7956 26.8161 16.5587 27.3787 17.1213C27.9413 17.6839 28.7043 18 29.5 18H33.5ZM34.5 15C34.5 15.2652 34.3946 15.5196 34.2071 15.7071C34.0196 15.8946 33.7652 16 33.5 16H29.5C29.2348 16 28.9804 15.8946 28.7929 15.7071C28.6054 15.5196 28.5 15.2652 28.5 15V11C28.5 10.7348 28.6054 10.4804 28.7929 10.2929C28.9804 10.1054 29.2348 9.99999 29.5 9.99999H33.5C33.7652 9.99999 34.0196 10.1054 34.2071 10.2929C34.3946 10.4804 34.5 10.7348 34.5 11L34.5 15ZM21.5 16C21.7652 16 22.0196 15.8946 22.2071 15.7071C22.3946 15.5196 22.5 15.2652 22.5 15C22.5 14.7348 22.3946 14.4804 22.2071 14.2929C22.0196 14.1054 21.7652 14 21.5 14L5.49999 14C5.23478 14 4.98042 14.1054 4.79288 14.2929C4.60535 14.4804 4.49999 14.7348 4.49999 15C4.49999 15.2652 4.60535 15.5196 4.79288 15.7071C4.98042 15.8946 5.23478 16 5.49999 16L21.5 16ZM21.5 12C21.7652 12 22.0196 11.8946 22.2071 11.7071C22.3946 11.5196 22.5 11.2652 22.5 11C22.5 10.7348 22.3946 10.4804 22.2071 10.2929C22.0196 10.1054 21.7652 9.99999 21.5 9.99999H9.49999C9.23478 9.99999 8.98042 10.1054 8.79289 10.2929C8.60535 10.4804 8.49999 10.7348 8.49999 11C8.49999 11.2652 8.60535 11.5196 8.79289 11.7071C8.98042 11.8946 9.23478 12 9.49999 12H21.5Z" fill="#0F1959" fill-opacity="0.5"/>
</svg>
