<svg width="55" height="55" viewBox="0 0 55 55" fill="none" xmlns="http://www.w3.org/2000/svg">
<path d="M13.0854 15.3771C12.873 15.5891 12.7044 15.8409 12.5894 16.1181C12.4744 16.3954 12.4152 16.6926 12.4152 16.9927C12.4152 17.2928 12.4744 17.59 12.5894 17.8673C12.7044 18.1445 12.873 18.3963 13.0854 18.6083L21.9541 27.5L13.0625 36.3917C12.8503 36.6038 12.682 36.8557 12.5672 37.1329C12.4524 37.4101 12.3933 37.7072 12.3933 38.0073C12.3933 38.3073 12.4524 38.6044 12.5672 38.8816C12.682 39.1589 12.8503 39.4107 13.0625 39.6229C13.2746 39.8351 13.5265 40.0034 13.8037 40.1182C14.0809 40.233 14.3781 40.2921 14.6781 40.2921C14.9782 40.2921 15.2753 40.233 15.5525 40.1182C15.8297 40.0034 16.0816 39.8351 16.2937 39.6229L26.8125 29.1042C27.0249 28.8921 27.1935 28.6403 27.3085 28.3631C27.4235 28.0859 27.4827 27.7887 27.4827 27.4885C27.4827 27.1884 27.4235 26.8912 27.3085 26.614C27.1935 26.3367 27.0249 26.0849 26.8125 25.8729L16.2937 15.3542C15.4229 14.4833 13.9791 14.4833 13.0854 15.3771Z" fill="#0F1959" fill-opacity="0.5"/>
<path d="M28.1874 15.3771C27.975 15.5891 27.8065 15.8409 27.6915 16.1181C27.5765 16.3954 27.5173 16.6926 27.5173 16.9927C27.5173 17.2928 27.5765 17.59 27.6915 17.8673C27.8065 18.1445 27.975 18.3963 28.1874 18.6083L37.0562 27.5L28.1645 36.3917C27.736 36.8201 27.4953 37.4013 27.4953 38.0073C27.4953 38.6133 27.736 39.1944 28.1645 39.6229C28.593 40.0514 29.1742 40.2921 29.7802 40.2921C30.3861 40.2921 30.9673 40.0514 31.3958 39.6229L41.9145 29.1042C42.127 28.8921 42.2955 28.6403 42.4105 28.3631C42.5255 28.0859 42.5847 27.7887 42.5847 27.4885C42.5847 27.1884 42.5255 26.8912 42.4105 26.614C42.2955 26.3367 42.127 26.0849 41.9145 25.8729L31.3958 15.3542C30.5249 14.4833 29.0812 14.4833 28.1874 15.3771Z" fill="#0F1959" fill-opacity="0.5"/>
</svg>
