<svg width="41" height="40" viewBox="0 0 41 40" fill="none" xmlns="http://www.w3.org/2000/svg">
<path d="M18.1667 31.669V31.6666V30.1666C18.1667 29.7493 18.2643 29.3532 18.4683 28.9657C18.663 28.5957 18.9266 28.3147 19.2683 28.1052C20.4374 27.4042 21.6765 26.8794 22.9878 26.5295C24.3016 26.1789 25.6937 26.001 27.1674 26C28.6415 26 30.0334 26.1779 31.3465 26.5293C32.6583 26.8804 33.897 27.4053 35.0651 28.1052C35.4068 28.3148 35.6703 28.5957 35.8651 28.9657C36.069 29.3532 36.1667 29.7493 36.1667 30.1666V31.6666C36.1667 31.8865 36.1031 32.0243 35.9796 32.1479C35.8561 32.2713 35.7196 32.3338 35.5024 32.3333H35.5H18.8333C18.6135 32.3333 18.4757 32.2698 18.3521 32.1462C18.2287 32.0227 18.1662 31.8862 18.1667 31.669ZM17.169 22.3333H17.1667H7.16667C6.94681 22.3333 6.80901 22.2698 6.68545 22.1462C6.562 22.0227 6.49949 21.8862 6.50001 21.669V21.6666C6.50001 21.4468 6.56355 21.309 6.68711 21.1854C6.81056 21.062 6.94705 20.9994 7.16431 21H7.16667H17.1667C17.3865 21 17.5243 21.0635 17.6479 21.1871C17.7713 21.3105 17.8339 21.447 17.8333 21.6643V21.6666C17.8333 21.8865 17.7698 22.0243 17.6462 22.1479C17.5228 22.2713 17.3863 22.3338 17.169 22.3333ZM23.8357 8.99997H23.8333H7.16667C6.94681 8.99997 6.80901 8.93643 6.68545 8.81286C6.562 8.68941 6.49949 8.55292 6.5 8.33566H6.50001V8.3333C6.50001 8.11344 6.56355 7.97564 6.68711 7.85207C6.81056 7.72863 6.94706 7.66612 7.16431 7.66663V7.66663H7.16667H23.8333C24.0532 7.66663 24.191 7.73017 24.3146 7.85374C24.438 7.97718 24.5005 8.11368 24.5 8.33094V8.3333C24.5 8.55316 24.4365 8.69096 24.3129 8.81452C24.1895 8.93797 24.053 9.00048 23.8357 8.99997ZM6.50001 15.0023V15C6.50001 14.7801 6.56355 14.6423 6.68711 14.5187C6.81056 14.3953 6.94705 14.3328 7.16431 14.3333H7.16667H18.7075C18.685 14.3829 18.6631 14.4328 18.6417 14.483C18.4799 14.8627 18.34 15.2574 18.2213 15.6666H7.16667C6.94681 15.6666 6.80901 15.6031 6.68545 15.4795C6.562 15.3561 6.49949 15.2196 6.50001 15.0023ZM27.1667 22.3333C26.04 22.3333 25.1147 21.9504 24.3321 21.1679C23.5496 20.3853 23.1667 19.46 23.1667 18.3333C23.1667 17.2066 23.5496 16.2813 24.3321 15.4987C25.1147 14.7162 26.04 14.3333 27.1667 14.3333C28.2934 14.3333 29.2187 14.7162 30.0012 15.4987C30.7838 16.2813 31.1667 17.2066 31.1667 18.3333C31.1667 19.46 30.7838 20.3853 30.0012 21.1679C29.2187 21.9504 28.2934 22.3333 27.1667 22.3333Z" stroke="#0F1959" stroke-opacity="0.5" stroke-width="2"/>
<path d="M18.1667 31.669V31.6666V30.1666C18.1667 29.7493 18.2643 29.3532 18.4683 28.9657C18.663 28.5957 18.9266 28.3147 19.2683 28.1052C20.4374 27.4042 21.6765 26.8794 22.9878 26.5295C24.3016 26.1789 25.6937 26.001 27.1674 26C28.6415 26 30.0334 26.1779 31.3465 26.5293C32.6583 26.8804 33.897 27.4053 35.0651 28.1052C35.4068 28.3148 35.6703 28.5957 35.8651 28.9657C36.069 29.3532 36.1667 29.7493 36.1667 30.1666V31.6666C36.1667 31.8865 36.1031 32.0243 35.9796 32.1479C35.8561 32.2713 35.7196 32.3338 35.5024 32.3333H35.5H18.8333C18.6135 32.3333 18.4757 32.2698 18.3521 32.1462C18.2287 32.0227 18.1662 31.8862 18.1667 31.669ZM17.169 22.3333H17.1667H7.16667C6.94681 22.3333 6.80901 22.2698 6.68545 22.1462C6.562 22.0227 6.49949 21.8862 6.50001 21.669V21.6666C6.50001 21.4468 6.56355 21.309 6.68711 21.1854C6.81056 21.062 6.94705 20.9994 7.16431 21H7.16667H17.1667C17.3865 21 17.5243 21.0635 17.6479 21.1871C17.7713 21.3105 17.8339 21.447 17.8333 21.6643V21.6666C17.8333 21.8865 17.7698 22.0243 17.6462 22.1479C17.5228 22.2713 17.3863 22.3338 17.169 22.3333ZM23.8357 8.99997H23.8333H7.16667C6.94681 8.99997 6.80901 8.93643 6.68545 8.81286C6.562 8.68941 6.49949 8.55292 6.5 8.33566H6.50001V8.3333C6.50001 8.11344 6.56355 7.97564 6.68711 7.85207C6.81056 7.72863 6.94706 7.66612 7.16431 7.66663V7.66663H7.16667H23.8333C24.0532 7.66663 24.191 7.73017 24.3146 7.85374C24.438 7.97718 24.5005 8.11368 24.5 8.33094V8.3333C24.5 8.55316 24.4365 8.69096 24.3129 8.81452C24.1895 8.93797 24.053 9.00048 23.8357 8.99997ZM6.50001 15.0023V15C6.50001 14.7801 6.56355 14.6423 6.68711 14.5187C6.81056 14.3953 6.94705 14.3328 7.16431 14.3333H7.16667H18.7075C18.685 14.3829 18.6631 14.4328 18.6417 14.483C18.4799 14.8627 18.34 15.2574 18.2213 15.6666H7.16667C6.94681 15.6666 6.80901 15.6031 6.68545 15.4795C6.562 15.3561 6.49949 15.2196 6.50001 15.0023ZM27.1667 22.3333C26.04 22.3333 25.1147 21.9504 24.3321 21.1679C23.5496 20.3853 23.1667 19.46 23.1667 18.3333C23.1667 17.2066 23.5496 16.2813 24.3321 15.4987C25.1147 14.7162 26.04 14.3333 27.1667 14.3333C28.2934 14.3333 29.2187 14.7162 30.0012 15.4987C30.7838 16.2813 31.1667 17.2066 31.1667 18.3333C31.1667 19.46 30.7838 20.3853 30.0012 21.1679C29.2187 21.9504 28.2934 22.3333 27.1667 22.3333Z" stroke="#0F1959" stroke-opacity="0.5" stroke-width="2"/>
</svg>
