<svg width="50" height="50" viewBox="0 0 50 50" fill="none" xmlns="http://www.w3.org/2000/svg">
<path d="M9.79175 42.2917L21.4584 30.625C22.5001 31.4583 23.698 32.1181 25.0522 32.6042C26.4063 33.0903 27.8473 33.3333 29.3751 33.3333C33.1598 33.3333 36.3626 32.0222 38.9834 29.4C41.6042 26.7778 42.9154 23.575 42.9167 19.7917C42.9167 16.0069 41.6056 12.8042 38.9834 10.1833C36.3612 7.5625 33.1584 6.25139 29.3751 6.25C25.5904 6.25 22.3876 7.56111 19.7667 10.1833C17.1459 12.8056 15.8348 16.0083 15.8334 19.7917C15.8334 21.3194 16.0765 22.7604 16.5626 24.1146C17.0487 25.4688 17.7084 26.6667 18.5417 27.7083L6.823 39.4271C6.44105 39.809 6.25008 40.2778 6.25008 40.8333C6.25008 41.3889 6.45842 41.875 6.87508 42.2917C7.25703 42.6736 7.74314 42.8646 8.33342 42.8646C8.92369 42.8646 9.40981 42.6736 9.79175 42.2917ZM29.3751 29.1667C26.7709 29.1667 24.557 28.2549 22.7334 26.4313C20.9098 24.6076 19.9987 22.3944 20.0001 19.7917C20.0001 17.1875 20.9119 14.9736 22.7355 13.15C24.5591 11.3264 26.7723 10.4153 29.3751 10.4167C31.9792 10.4167 34.1931 11.3285 36.0167 13.1521C37.8404 14.9757 38.7515 17.1889 38.7501 19.7917C38.7501 22.3958 37.8383 24.6097 36.0147 26.4333C34.1911 28.2569 31.9779 29.1681 29.3751 29.1667Z" fill="#0F1959"/>
</svg>
