<svg width="51" height="50" viewBox="0 0 51 50" fill="none" xmlns="http://www.w3.org/2000/svg">
<path d="M10.2918 42.2917L21.9584 30.625C23.0001 31.4583 24.198 32.1181 25.5522 32.6042C26.9063 33.0903 28.3473 33.3333 29.8751 33.3333C33.6598 33.3333 36.8626 32.0222 39.4834 29.4C42.1042 26.7778 43.4154 23.575 43.4167 19.7917C43.4167 16.0069 42.1056 12.8042 39.4834 10.1833C36.8612 7.5625 33.6584 6.25139 29.8751 6.25C26.0904 6.25 22.8876 7.56111 20.2667 10.1833C17.6459 12.8056 16.3348 16.0083 16.3334 19.7917C16.3334 21.3194 16.5765 22.7604 17.0626 24.1146C17.5487 25.4688 18.2084 26.6667 19.0417 27.7083L7.323 39.4271C6.94105 39.809 6.75008 40.2778 6.75008 40.8333C6.75008 41.3889 6.95842 41.875 7.37508 42.2917C7.75703 42.6736 8.24314 42.8646 8.83342 42.8646C9.42369 42.8646 9.90981 42.6736 10.2918 42.2917ZM29.8751 29.1667C27.2709 29.1667 25.057 28.2549 23.2334 26.4313C21.4098 24.6076 20.4987 22.3944 20.5001 19.7917C20.5001 17.1875 21.4119 14.9736 23.2355 13.15C25.0591 11.3264 27.2723 10.4153 29.8751 10.4167C32.4792 10.4167 34.6931 11.3285 36.5167 13.1521C38.3404 14.9757 39.2515 17.1889 39.2501 19.7917C39.2501 22.3958 38.3383 24.6097 36.5147 26.4333C34.6911 28.2569 32.4779 29.1681 29.8751 29.1667Z" fill="#0F1959"/>
</svg>
