<svg width="95" height="96" viewBox="0 0 95 96" fill="none" xmlns="http://www.w3.org/2000/svg">
<path d="M23.1563 67.9375C26.5209 65.3646 30.2813 63.3353 34.4375 61.8496C38.5938 60.3639 42.9479 59.6224 47.5 59.625C52.0521 59.625 56.4063 60.3679 60.5625 61.8536C64.7188 63.3393 68.4792 65.3672 71.8438 67.9375C74.1528 65.2327 75.9512 62.1649 77.239 58.7344C78.5268 55.3038 79.1693 51.6424 79.1667 47.75C79.1667 38.9757 76.0831 31.5037 69.9161 25.334C63.749 19.1643 56.277 16.0807 47.5 16.0834C38.7257 16.0834 31.2537 19.1669 25.084 25.334C18.9143 31.5011 15.8307 38.9731 15.8334 47.75C15.8334 51.6424 16.4772 55.3038 17.765 58.7344C19.0528 62.1649 20.8499 65.2327 23.1563 67.9375ZM47.5 51.7084C43.6077 51.7084 40.3249 50.3731 37.6517 47.7025C34.9785 45.032 33.6432 41.7492 33.6459 37.8542C33.6459 33.9618 34.9811 30.679 37.6517 28.0059C40.3222 25.3327 43.605 23.9974 47.5 24C51.3924 24 54.6752 25.3353 57.3484 28.0059C60.0215 30.6764 61.3568 33.9592 61.3542 37.8542C61.3542 41.7465 60.0189 45.0293 57.3484 47.7025C54.6778 50.3757 51.395 51.711 47.5 51.7084ZM47.5 87.3334C42.0243 87.3334 36.8785 86.2936 32.0625 84.2142C27.2465 82.1347 23.0573 79.3151 19.4948 75.7552C15.9323 72.1927 13.1127 68.0035 11.0359 63.1875C8.95905 58.3715 7.91933 53.2257 7.91669 47.75C7.91669 42.2743 8.95641 37.1285 11.0359 32.3125C13.1153 27.4965 15.935 23.3073 19.4948 19.7448C23.0573 16.1823 27.2465 13.3627 32.0625 11.2859C36.8785 9.20905 42.0243 8.16933 47.5 8.16669C52.9757 8.16669 58.1215 9.20641 62.9375 11.2859C67.7535 13.3653 71.9427 16.185 75.5052 19.7448C79.0677 23.3073 81.8887 27.4965 83.9681 32.3125C86.0476 37.1285 87.086 42.2743 87.0834 47.75C87.0834 53.2257 86.0436 58.3715 83.9642 63.1875C81.8847 68.0035 79.0651 72.1927 75.5052 75.7552C71.9427 79.3177 67.7535 82.1387 62.9375 84.2181C58.1215 86.2976 52.9757 87.336 47.5 87.3334Z" fill="#0F1959"/>
</svg>
