<svg width="107" height="107" viewBox="0 0 107 107" fill="none" xmlns="http://www.w3.org/2000/svg">
<path d="M83.5 48C83.5 48.7367 83.2278 49.4433 82.7434 49.9642C82.2589 50.4851 81.6018 50.7778 80.9167 50.7778H24.0833C23.3982 50.7778 22.7411 50.4851 22.2566 49.9642C21.7722 49.4433 21.5 48.7367 21.5 48C21.5 47.2633 21.7722 46.5567 22.2566 46.0358C22.7411 45.5149 23.3982 45.2222 24.0833 45.2222H80.9167C81.6018 45.2222 82.2589 45.5149 82.7434 46.0358C83.2278 46.5567 83.5 47.2633 83.5 48ZM24.0833 28.5556H80.9167C81.6018 28.5556 82.2589 28.2629 82.7434 27.742C83.2278 27.221 83.5 26.5145 83.5 25.7778C83.5 25.0411 83.2278 24.3345 82.7434 23.8136C82.2589 23.2927 81.6018 23 80.9167 23H24.0833C23.3982 23 22.7411 23.2927 22.2566 23.8136C21.7722 24.3345 21.5 25.0411 21.5 25.7778C21.5 26.5145 21.7722 27.221 22.2566 27.742C22.7411 28.2629 23.3982 28.5556 24.0833 28.5556ZM80.9167 67.4444H24.0833C23.3982 67.4444 22.7411 67.7371 22.2566 68.258C21.7722 68.779 21.5 69.4855 21.5 70.2222C21.5 70.9589 21.7722 71.6655 22.2566 72.1864C22.7411 72.7073 23.3982 73 24.0833 73H80.9167C81.6018 73 82.2589 72.7073 82.7434 72.1864C83.2278 71.6655 83.5 70.9589 83.5 70.2222C83.5 69.4855 83.2278 68.779 82.7434 68.258C82.2589 67.7371 81.6018 67.4444 80.9167 67.4444Z" fill="white"/>
</svg>
