<svg width="25" height="25" viewBox="0 0 25 25" fill="none" xmlns="http://www.w3.org/2000/svg">
<g clip-path="url(#clip0_619_577)">
<g clip-path="url(#clip1_619_577)">
<path opacity="0.979" fill-rule="evenodd" clip-rule="evenodd" d="M5.15137 -0.0244141C10.1969 -0.0244141 15.2425 -0.0244141 20.2881 -0.0244141C21.8668 1.52181 23.4293 3.08431 24.9756 4.66309C24.9756 11.0758 24.9756 17.4886 24.9756 23.9014C24.8802 24.1243 24.7581 24.3358 24.6094 24.5361C24.3973 24.7273 24.1613 24.8738 23.9014 24.9756C17.6514 24.9756 11.4014 24.9756 5.15137 24.9756C4.61507 24.8055 4.26514 24.4474 4.10156 23.9014C4.06901 22.3063 4.06901 20.7113 4.10156 19.1162C4.28457 18.8212 4.53686 18.7479 4.8584 18.8965C4.93403 18.9558 4.99097 19.029 5.0293 19.1162C5.04556 20.5811 5.06187 22.0459 5.07812 23.5107C5.10811 23.6873 5.19761 23.8256 5.34668 23.9258C11.3993 24.0068 17.454 24.0231 23.5107 23.9746C23.7793 23.9339 23.9339 23.7793 23.9746 23.5107C23.999 17.4724 24.0072 11.4339 23.999 5.39551C22.8759 5.40366 21.7528 5.39551 20.6299 5.37109C20.0846 5.21645 19.7347 4.86654 19.5801 4.32129C19.5557 3.19836 19.5475 2.07531 19.5557 0.952148C14.8844 0.944009 10.2132 0.952148 5.54199 0.976562C5.36548 1.00652 5.2271 1.09604 5.12695 1.24512C5.06489 1.50166 5.04048 1.76208 5.05371 2.02637C5.5876 1.93933 6.12471 1.91491 6.66504 1.95312C6.75454 2.01009 6.82778 2.08333 6.88477 2.17285C6.96509 4.25393 6.98135 6.33726 6.93359 8.42285C6.89292 8.69141 6.73828 8.84604 6.46973 8.88672C4.4515 8.91929 2.43327 8.91929 0.415039 8.88672C0.236536 8.84644 0.0900513 8.75693 -0.0244141 8.61816C-0.0244141 8.27637 -0.0244141 7.93457 -0.0244141 7.59277C0.273946 5.6856 1.20168 4.16377 2.75879 3.02734C3.17263 2.75532 3.61208 2.5356 4.07715 2.36816C4.05647 1.87599 4.08089 1.38771 4.15039 0.90332C4.34801 0.443167 4.68166 0.133922 5.15137 -0.0244141ZM20.5322 1.7334C21.4338 2.61059 22.3291 3.49764 23.2178 4.39453C22.4854 4.42708 21.7529 4.42708 21.0205 4.39453C20.752 4.35384 20.5973 4.19922 20.5566 3.93066C20.5322 3.19842 20.5241 2.466 20.5322 1.7334ZM5.7373 2.9541C5.80239 2.9541 5.86753 2.9541 5.93262 2.9541C5.93262 4.59798 5.93262 6.24185 5.93262 7.88574C4.28874 7.88574 2.64486 7.88574 1.00098 7.88574C1.43729 5.13833 3.01607 3.49445 5.7373 2.9541ZM8.66699 4.71191C9.77607 4.81535 10.7526 5.22227 11.5967 5.93262C10.6371 6.91665 9.66865 7.89321 8.69141 8.8623C8.66699 7.47896 8.65884 6.09546 8.66699 4.71191ZM8.76465 21.1182C9.24429 21.0688 9.44771 21.2804 9.375 21.7529C9.09829 22.0785 8.82163 22.0785 8.54492 21.7529C8.46587 21.4828 8.53911 21.2712 8.76465 21.1182ZM16.3818 21.1182C16.8185 21.0748 17.022 21.2701 16.9922 21.7041C16.8636 21.9596 16.6602 22.0491 16.3818 21.9727C15.9985 21.689 15.9985 21.4041 16.3818 21.1182Z" fill="#0F1959"/>
<path opacity="0.948" fill-rule="evenodd" clip-rule="evenodd" d="M8.12988 3.6377C11.2038 3.79102 13.279 5.30469 14.3555 8.17871C15.0067 10.5536 14.5347 12.6694 12.9395 14.5264C10.8604 16.5616 8.44346 17.0906 5.68848 16.1133C3.18922 14.9414 1.85458 12.9719 1.68457 10.2051C1.699 9.88198 1.86176 9.68667 2.17285 9.61914C3.99569 9.59473 5.8186 9.58657 7.6416 9.59473C7.63345 7.77173 7.6416 5.94883 7.66602 4.12598C7.71553 3.85685 7.87017 3.69409 8.12988 3.6377ZM8.66699 4.71191C8.65884 6.09546 8.66699 7.47896 8.69141 8.8623C9.66865 7.89321 10.6371 6.91665 11.5967 5.93262C10.7526 5.22227 9.77607 4.81535 8.66699 4.71191ZM12.3291 6.66504C13.1947 7.64985 13.6179 8.80547 13.5986 10.1318C13.5063 12.4579 12.4158 14.1262 10.3271 15.1367C7.58926 16.0823 5.35132 15.4068 3.61328 13.1104C3.12895 12.3491 2.84412 11.519 2.75879 10.6201C4.63061 10.6283 6.50234 10.6201 8.37402 10.5957C9.71714 9.30957 11.0355 7.99937 12.3291 6.66504Z" fill="#0F1959"/>
<path opacity="0.986" fill-rule="evenodd" clip-rule="evenodd" d="M16.1376 6.7627C18.2698 6.75455 20.402 6.7627 22.5341 6.78712C22.8448 6.99903 22.9018 7.26759 22.705 7.59278C22.6609 7.65142 22.604 7.69215 22.5341 7.71485C20.4019 7.74742 18.2698 7.74742 16.1376 7.71485C15.8426 7.53184 15.7693 7.27955 15.9179 6.95801C15.9861 6.88135 16.0593 6.81622 16.1376 6.7627Z" fill="#0F1959"/>
<path opacity="0.986" fill-rule="evenodd" clip-rule="evenodd" d="M16.1376 9.10645C18.2698 9.0983 20.402 9.10645 22.5341 9.13087C22.8448 9.34278 22.9018 9.61134 22.705 9.93653C22.6609 9.99517 22.604 10.0359 22.5341 10.0586C20.4019 10.0912 18.2698 10.0912 16.1376 10.0586C15.8426 9.87559 15.7693 9.6233 15.9179 9.30176C15.9861 9.2251 16.0593 9.15997 16.1376 9.10645Z" fill="#0F1959"/>
<path opacity="0.973" fill-rule="evenodd" clip-rule="evenodd" d="M16.1376 11.4502C17.1468 11.442 18.156 11.4502 19.1649 11.4746C19.5556 11.7838 19.5556 12.0931 19.1649 12.4024C18.1558 12.4349 17.1467 12.4349 16.1376 12.4024C15.8426 12.2193 15.7693 11.967 15.9179 11.6455C15.9861 11.5689 16.0593 11.5037 16.1376 11.4502Z" fill="#0F1959"/>
<path opacity="0.899" fill-rule="evenodd" clip-rule="evenodd" d="M20.9228 11.4502C21.344 11.3591 21.5881 11.5218 21.6552 11.9385C21.5881 12.363 21.344 12.5177 20.9228 12.4023C20.5361 12.0852 20.5361 11.7679 20.9228 11.4502Z" fill="#0F1959"/>
<path opacity="0.947" fill-rule="evenodd" clip-rule="evenodd" d="M21.167 15.3564C22.1709 15.3596 22.7406 15.856 22.876 16.8457C22.7695 17.7334 22.2731 18.2299 21.3867 18.335C21.129 18.3048 20.8768 18.2641 20.6299 18.2129C19.7428 19.1 18.8558 19.987 17.9688 20.874C18.2163 21.6938 17.9966 22.353 17.3096 22.8516C16.4408 23.2292 15.7491 23.0257 15.2344 22.2412C15.1496 22.0209 15.0926 21.7931 15.0635 21.5576C15.0945 21.3383 15.1352 21.1267 15.1856 20.9229C14.5976 20.3186 13.9954 19.7327 13.3789 19.165C12.938 19.3601 12.4986 19.3601 12.0606 19.165C11.4909 19.7347 10.9213 20.3043 10.3516 20.874C10.5887 21.6435 10.4015 22.2864 9.79006 22.8027C8.98196 23.2067 8.29021 23.0684 7.71487 22.3877C7.29709 21.5848 7.43547 20.8931 8.12991 20.3125C8.60422 20.0468 9.0925 19.9979 9.59475 20.166C10.1807 19.5801 10.7666 18.9941 11.3526 18.4082C11.0532 17.4605 11.3625 16.7932 12.2803 16.4063C13.2375 16.2133 13.8641 16.5795 14.1602 17.5049C14.18 17.7992 14.18 18.0922 14.1602 18.3838C14.7543 18.9779 15.3483 19.5719 15.9424 20.166C16.1503 20.128 16.3619 20.0873 16.5772 20.0439C16.7768 20.0748 16.9721 20.1236 17.1631 20.1904C18.1146 19.2634 19.0586 18.3275 19.9951 17.3828C19.738 16.326 20.1286 15.6505 21.167 15.3564ZM21.2647 16.3818C21.7044 16.4067 21.8753 16.6346 21.7774 17.0654C21.4762 17.4029 21.1996 17.3867 20.9473 17.0166C20.8729 16.7097 20.9786 16.4981 21.2647 16.3818ZM12.6221 17.3584C13.0747 17.4177 13.2294 17.6619 13.086 18.0908C12.6927 18.401 12.4079 18.3197 12.2315 17.8467C12.2743 17.609 12.4046 17.4462 12.6221 17.3584ZM8.76467 21.1182C8.53913 21.2712 8.46589 21.4828 8.54494 21.7529C8.82165 22.0785 9.09831 22.0785 9.37502 21.7529C9.44773 21.2804 9.24431 21.0688 8.76467 21.1182ZM16.3819 21.1182C15.9985 21.4041 15.9985 21.689 16.3819 21.9727C16.6602 22.0491 16.8636 21.9596 16.9922 21.7041C17.022 21.2701 16.8185 21.0748 16.3819 21.1182Z" fill="#0F1959"/>
<path opacity="0.887" fill-rule="evenodd" clip-rule="evenodd" d="M4.32135 17.0655C4.89869 16.9836 5.13473 17.2278 5.02936 17.7979C4.85088 18.031 4.61488 18.1043 4.32135 18.0176C4.08822 17.8391 4.01498 17.6032 4.10162 17.3096C4.16831 17.2187 4.24155 17.1373 4.32135 17.0655Z" fill="#0F1959"/>
</g>
</g>
<defs>
<clipPath id="clip0_619_577">
<rect width="25" height="25" fill="white"/>
</clipPath>
<clipPath id="clip1_619_577">
<rect width="25" height="25" fill="white"/>
</clipPath>
</defs>
</svg>
