<svg width="41" height="40" viewBox="0 0 41 40" fill="none" xmlns="http://www.w3.org/2000/svg">
<path d="M32.1666 35H8.83329C8.39127 35 7.96734 34.8244 7.65478 34.5119C7.34222 34.1993 7.16663 33.7754 7.16663 33.3333V18.3333H2.16663L19.3783 2.68668C19.6851 2.40747 20.0851 2.25275 20.5 2.25275C20.9148 2.25275 21.3148 2.40747 21.6216 2.68668L38.8333 18.3333H33.8333V33.3333C33.8333 33.7754 33.6577 34.1993 33.3451 34.5119C33.0326 34.8244 32.6087 35 32.1666 35ZM22.1666 31.6667H30.5V15.2617L20.5 6.17168L10.5 15.2617V31.6667H18.8333V21.6667H22.1666V31.6667Z" fill="#0F1959" fill-opacity="0.5"/>
<path d="M32.1666 35H8.83329C8.39127 35 7.96734 34.8244 7.65478 34.5119C7.34222 34.1993 7.16663 33.7754 7.16663 33.3333V18.3333H2.16663L19.3783 2.68668C19.6851 2.40747 20.0851 2.25275 20.5 2.25275C20.9148 2.25275 21.3148 2.40747 21.6216 2.68668L38.8333 18.3333H33.8333V33.3333C33.8333 33.7754 33.6577 34.1993 33.3451 34.5119C33.0326 34.8244 32.6087 35 32.1666 35ZM22.1666 31.6667H30.5V15.2617L20.5 6.17168L10.5 15.2617V31.6667H18.8333V21.6667H22.1666V31.6667Z" fill="#0F1959" fill-opacity="0.5"/>
</svg>
