<svg width="20" height="21" viewBox="0 0 20 21" fill="none" xmlns="http://www.w3.org/2000/svg">
<path d="M5.22086 3.50583L6.17669 4.87167C5.01517 5.68481 4.14315 6.84709 3.68731 8.18967C3.23146 9.53224 3.21552 10.9852 3.64182 12.3374C4.06811 13.6897 4.91443 14.8708 6.05783 15.7092C7.20124 16.5477 8.58217 16.9997 10 16.9997C11.4179 16.9997 12.7988 16.5477 13.9422 15.7092C15.0856 14.8708 15.9319 13.6897 16.3582 12.3374C16.7845 10.9852 16.7686 9.53224 16.3127 8.18967C15.8569 6.84709 14.9849 5.68481 13.8234 4.87167L14.7792 3.50583C15.8775 4.27369 16.7741 5.29538 17.3929 6.48406C18.0117 7.67273 18.3343 8.99324 18.3334 10.3333C18.3334 14.9358 14.6025 18.6667 10 18.6667C5.39752 18.6667 1.66669 14.9358 1.66669 10.3333C1.66572 8.99324 1.98835 7.67273 2.60713 6.48406C3.22592 5.29538 4.12256 4.27369 5.22086 3.50583ZM9.16669 10.3333V2H10.8334V10.3333H9.16669Z" fill="white"/>
</svg>
