<svg width="41" height="41" viewBox="0 0 41 41" fill="none" xmlns="http://www.w3.org/2000/svg">
<path d="M33.6671 21.6C33.3999 21.2958 33.2526 20.9048 33.2526 20.5C33.2526 20.0951 33.3999 19.7041 33.6671 19.4L35.8005 17C36.0356 16.7378 36.1815 16.4078 36.2175 16.0575C36.2534 15.7072 36.1774 15.3545 36.0005 15.05L32.6671 9.28332C32.492 8.97919 32.2253 8.73812 31.9051 8.59446C31.5848 8.45081 31.2274 8.41192 30.8838 8.48332L27.7505 9.11665C27.3518 9.19904 26.9367 9.13264 26.5836 8.92999C26.2305 8.72734 25.9638 8.40246 25.8338 8.01665L24.8171 4.96665C24.7053 4.63562 24.4923 4.3481 24.2082 4.14472C23.9241 3.94135 23.5832 3.83242 23.2338 3.83332H16.5671C16.2037 3.81435 15.844 3.91487 15.5431 4.11951C15.2421 4.32416 15.0164 4.62169 14.9005 4.96665L13.9671 8.01665C13.8371 8.40246 13.5704 8.72734 13.2173 8.92999C12.8642 9.13264 12.4492 9.19904 12.0505 9.11665L8.83381 8.48332C8.50806 8.43729 8.17598 8.48869 7.87939 8.63105C7.5828 8.77342 7.33498 9.00037 7.16715 9.28332L3.83381 15.05C3.65241 15.3511 3.57085 15.7018 3.60078 16.052C3.63072 16.4023 3.77062 16.7341 4.00048 17L6.11714 19.4C6.38434 19.7041 6.5317 20.0951 6.5317 20.5C6.5317 20.9048 6.38434 21.2958 6.11714 21.6L4.00048 24C3.77062 24.2659 3.63072 24.5977 3.60078 24.948C3.57085 25.2982 3.65241 25.6489 3.83381 25.95L7.16715 31.7167C7.34231 32.0208 7.60901 32.2619 7.92923 32.4055C8.24945 32.5492 8.60685 32.5881 8.95048 32.5167L12.0838 31.8833C12.4825 31.8009 12.8976 31.8673 13.2507 32.07C13.6038 32.2726 13.8705 32.5975 14.0005 32.9833L15.0171 36.0333C15.1331 36.3783 15.3588 36.6758 15.6598 36.8805C15.9607 37.0851 16.3204 37.1856 16.6838 37.1667H23.3505C23.6999 37.1676 24.0407 37.0586 24.3249 36.8553C24.609 36.6519 24.822 36.3644 24.9338 36.0333L25.9505 32.9833C26.0805 32.5975 26.3472 32.2726 26.7003 32.07C27.0534 31.8673 27.4685 31.8009 27.8671 31.8833L31.0005 32.5167C31.3441 32.5881 31.7015 32.5492 32.0217 32.4055C32.3419 32.2619 32.6087 32.0208 32.7838 31.7167L36.1171 25.95C36.2941 25.6455 36.3701 25.2928 36.3341 24.9425C36.2982 24.5921 36.1522 24.2622 35.9171 24L33.6671 21.6ZM31.1838 23.8333L32.5171 25.3333L30.3838 29.0333L28.4171 28.6333C27.2168 28.388 25.9681 28.5919 24.9081 29.2063C23.8482 29.8208 23.0507 30.8031 22.6671 31.9667L22.0338 33.8333H17.7671L17.1671 31.9333C16.7836 30.7697 15.9861 29.7875 14.9262 29.173C13.8662 28.5585 12.6175 28.3546 11.4171 28.6L9.45048 29L7.28381 25.3167L8.61715 23.8167C9.43707 22.9 9.89037 21.7132 9.89037 20.4833C9.89037 19.2534 9.43707 18.0667 8.61715 17.15L7.28381 15.65L9.41714 11.9833L11.3838 12.3833C12.5842 12.6287 13.8329 12.4248 14.8928 11.8103C15.9528 11.1958 16.7502 10.2136 17.1338 9.04999L17.7671 7.16665H22.0338L22.6671 9.06665C23.0507 10.2303 23.8482 11.2125 24.9081 11.827C25.9681 12.4415 27.2168 12.6454 28.4171 12.4L30.3838 12L32.5171 15.7L31.1838 17.2C30.3731 18.1146 29.9254 19.2945 29.9254 20.5167C29.9254 21.7389 30.3731 22.9187 31.1838 23.8333ZM19.9005 13.8333C18.5819 13.8333 17.293 14.2243 16.1967 14.9569C15.1003 15.6894 14.2459 16.7306 13.7413 17.9488C13.2367 19.1669 13.1047 20.5074 13.3619 21.8006C13.6191 23.0938 14.2541 24.2817 15.1864 25.214C16.1188 26.1464 17.3067 26.7813 18.5999 27.0386C19.8931 27.2958 21.2335 27.1638 22.4517 26.6592C23.6699 26.1546 24.7111 25.3001 25.4436 24.2038C26.1762 23.1075 26.5671 21.8185 26.5671 20.5C26.5671 18.7319 25.8648 17.0362 24.6145 15.7859C23.3643 14.5357 21.6686 13.8333 19.9005 13.8333ZM19.9005 23.8333C19.2412 23.8333 18.5967 23.6378 18.0486 23.2716C17.5004 22.9053 17.0732 22.3847 16.8209 21.7756C16.5686 21.1665 16.5026 20.4963 16.6312 19.8497C16.7598 19.2031 17.0773 18.6091 17.5435 18.143C18.0096 17.6768 18.6036 17.3593 19.2502 17.2307C19.8968 17.1021 20.567 17.1681 21.1761 17.4204C21.7852 17.6727 22.3058 18.0999 22.672 18.6481C23.0383 19.1963 23.2338 19.8407 23.2338 20.5C23.2338 21.384 22.8826 22.2319 22.2575 22.857C21.6324 23.4821 20.7845 23.8333 19.9005 23.8333Z" fill="#0F1959" fill-opacity="0.5"/>
</svg>
