<?xml version="1.0" encoding="UTF-8"?>
<!DOCTYPE svg PUBLIC "-//W3C//DTD SVG 1.1//EN" "http://www.w3.org/Graphics/SVG/1.1/DTD/svg11.dtd">
<svg xmlns="http://www.w3.org/2000/svg" version="1.1" width="128px" height="128px" style="shape-rendering:geometricPrecision; text-rendering:geometricPrecision; image-rendering:optimizeQuality; fill-rule:evenodd; clip-rule:evenodd" xmlns:xlink="http://www.w3.org/1999/xlink">
<g><path style="opacity:0.868" fill="#000000" d="M 3.5,-0.5 C 35.1667,-0.5 66.8333,-0.5 98.5,-0.5C 99.292,11.1214 99.792,22.788 100,34.5C 110.989,23.784 119.156,25.6173 124.5,40C 124.375,41.6268 123.875,43.1268 123,44.5C 115.333,51.1667 107.667,57.8333 100,64.5C 99.811,85.543 99.311,106.543 98.5,127.5C 66.8333,127.5 35.1667,127.5 3.5,127.5C 2.16667,84.8333 2.16667,42.1667 3.5,-0.5 Z M 8.5,4.5 C 36.8333,4.5 65.1667,4.5 93.5,4.5C 93.6665,16.5046 93.4999,28.5046 93,40.5C 89.3333,43.5 85.6667,46.5 82,49.5C 73.245,48.3503 64.4117,48.1837 55.5,49C 54.1398,50.9376 54.4732,52.6043 56.5,54C 62.8333,54.3333 69.1667,54.6667 75.5,55C 73.5448,55.9533 71.8782,57.2866 70.5,59C 65.1771,59.4994 59.8437,59.666 54.5,59.5C 54.1645,64.3559 56.4978,66.5226 61.5,66C 54.6758,70.4899 49.6758,76.4899 46.5,84C 38.5069,84.4997 30.5069,84.6664 22.5,84.5C 22.3336,92.84 22.5003,101.173 23,109.5C 30.7538,110.647 38.5872,110.814 46.5,110C 47,109.5 47.5,109 48,108.5C 48.203,104.579 48.703,100.745 49.5,97C 59.9491,94.0762 70.6157,92.7428 81.5,93C 82.8333,91.6667 82.8333,90.3333 81.5,89C 78.1667,88.6667 74.8333,88.3333 71.5,88C 78.6461,82.355 85.6461,76.5217 92.5,70.5C 93.4995,87.8205 93.8328,105.154 93.5,122.5C 65.1667,122.5 36.8333,122.5 8.5,122.5C 8.5,83.1667 8.5,43.8333 8.5,4.5 Z M 110.5,33.5 C 111.552,33.3505 112.552,33.5172 113.5,34C 114.928,36.1847 116.595,38.1847 118.5,40C 117.333,41.1667 116.167,42.3333 115,43.5C 112.971,40.9708 111.138,38.3041 109.5,35.5C 109.863,34.8165 110.196,34.1499 110.5,33.5 Z M 103.5,39.5 C 105.099,41.6038 106.932,43.6038 109,45.5C 109.667,46.5 109.667,47.5 109,48.5C 94.1481,60.5956 79.4814,72.9289 65,85.5C 63.2368,82.9804 61.2368,80.6471 59,78.5C 58.3333,77.8333 58.3333,77.1667 59,76.5C 74.0234,64.3023 88.8567,51.9689 103.5,39.5 Z M 28.5,49.5 C 33.1667,49.5 37.8333,49.5 42.5,49.5C 42.5,54.1667 42.5,58.8333 42.5,63.5C 37.8333,63.5 33.1667,63.5 28.5,63.5C 28.5,58.8333 28.5,54.1667 28.5,49.5 Z M 51.5,89.5 C 52.7659,82.3451 55.0992,81.8451 58.5,88C 56.26,88.977 53.9267,89.477 51.5,89.5 Z M 28.5,90.5 C 33.1667,90.5 37.8333,90.5 42.5,90.5C 42.5,95.1667 42.5,99.8333 42.5,104.5C 37.8333,104.5 33.1667,104.5 28.5,104.5C 28.5,99.8333 28.5,95.1667 28.5,90.5 Z"/></g>
<g><path style="opacity:0.826" fill="#000000" d="M 18.5,11.5 C 40.1692,11.3334 61.8359,11.5 83.5,12C 84.8333,17.6667 84.8333,23.3333 83.5,29C 77.5,29.6667 71.5,29.6667 65.5,29C 64.4464,27.6124 64.2797,26.1124 65,24.5C 69.4014,23.5333 73.9014,23.2 78.5,23.5C 78.5,21.5 78.5,19.5 78.5,17.5C 60.1667,17.5 41.8333,17.5 23.5,17.5C 23.5,19.5 23.5,21.5 23.5,23.5C 31.7524,23.1842 39.919,23.5175 48,24.5C 48.7112,26.3668 48.2112,27.8668 46.5,29C 37.1667,29.6667 27.8333,29.6667 18.5,29C 17.1875,23.167 17.1875,17.3337 18.5,11.5 Z"/></g>
<g><path style="opacity:0.619" fill="#000000" d="M 54.5,23.5 C 59.1585,23.0146 60.4919,24.848 58.5,29C 54.1258,29.4241 52.7925,27.5907 54.5,23.5 Z"/></g>
<g><path style="opacity:0.836" fill="#000000" d="M 22.5,43.5 C 30.8599,43.1688 39.1932,43.5021 47.5,44.5C 48.6334,52.1171 48.8001,59.7837 48,67.5C 47.5,68 47,68.5 46.5,69C 38.8333,69.6667 31.1667,69.6667 23.5,69C 22.5168,60.5851 22.1834,52.0851 22.5,43.5 Z M 28.5,49.5 C 28.5,54.1667 28.5,58.8333 28.5,63.5C 33.1667,63.5 37.8333,63.5 42.5,63.5C 42.5,58.8333 42.5,54.1667 42.5,49.5C 37.8333,49.5 33.1667,49.5 28.5,49.5 Z"/></g>
<g><path style="opacity:0.801" fill="#000000" d="M 55.5,100.5 C 64.1731,100.334 72.8397,100.5 81.5,101C 82.8602,102.938 82.5268,104.604 80.5,106C 72.5,106.667 64.5,106.667 56.5,106C 54.3652,104.444 54.0319,102.611 55.5,100.5 Z"/></g>
</svg>
