<svg width="20" height="21" viewBox="0 0 20 21" fill="none" xmlns="http://www.w3.org/2000/svg">
<path d="M16.5833 10.8832C16.4497 10.7312 16.3761 10.5357 16.3761 10.3332C16.3761 10.1308 16.4497 9.93532 16.5833 9.78325L17.65 8.58325C17.7675 8.45214 17.8405 8.28717 17.8585 8.112C17.8765 7.93684 17.8385 7.76049 17.75 7.60825L16.0833 4.72491C15.9957 4.57285 15.8624 4.45231 15.7023 4.38048C15.5422 4.30866 15.3635 4.28921 15.1917 4.32491L13.625 4.64158C13.4256 4.68277 13.2181 4.64957 13.0416 4.54825C12.865 4.44692 12.7317 4.28448 12.6667 4.09158L12.1583 2.56658C12.1024 2.40106 11.9959 2.2573 11.8539 2.15561C11.7118 2.05393 11.5414 1.99946 11.3667 1.99991H8.03333C7.85161 1.99043 7.67177 2.04068 7.5213 2.14301C7.37082 2.24533 7.25798 2.3941 7.2 2.56658L6.73333 4.09158C6.66833 4.28448 6.53497 4.44692 6.35842 4.54825C6.18187 4.64957 5.97434 4.68277 5.77499 4.64158L4.16666 4.32491C4.00379 4.3019 3.83774 4.3276 3.68945 4.39878C3.54116 4.46996 3.41725 4.58344 3.33333 4.72491L1.66666 7.60825C1.57596 7.75879 1.53518 7.93415 1.55015 8.10927C1.56511 8.28438 1.63506 8.45028 1.74999 8.58325L2.80833 9.78325C2.94193 9.93532 3.01561 10.1308 3.01561 10.3332C3.01561 10.5357 2.94193 10.7312 2.80833 10.8832L1.74999 12.0832C1.63506 12.2162 1.56511 12.3821 1.55015 12.5572C1.53518 12.7323 1.57596 12.9077 1.66666 13.0582L3.33333 15.9416C3.42091 16.0936 3.55426 16.2142 3.71437 16.286C3.87448 16.3578 4.05318 16.3773 4.225 16.3416L5.79166 16.0249C5.99101 15.9837 6.19854 16.0169 6.37509 16.1182C6.55164 16.2196 6.685 16.382 6.75 16.5749L7.25833 18.0999C7.31631 18.2724 7.42916 18.4212 7.57963 18.5235C7.73011 18.6258 7.90994 18.6761 8.09166 18.6666H11.425C11.5997 18.667 11.7701 18.6126 11.9122 18.5109C12.0542 18.4092 12.1608 18.2654 12.2167 18.0999L12.725 16.5749C12.79 16.382 12.9234 16.2196 13.0999 16.1182C13.2765 16.0169 13.484 15.9837 13.6833 16.0249L15.25 16.3416C15.4218 16.3773 15.6005 16.3578 15.7606 16.286C15.9207 16.2142 16.0541 16.0936 16.1417 15.9416L17.8083 13.0582C17.8968 12.906 17.9348 12.7297 17.9168 12.5545C17.8989 12.3793 17.8259 12.2144 17.7083 12.0832L16.5833 10.8832ZM15.3417 11.9999L16.0083 12.7499L14.9417 14.5999L13.9583 14.3999C13.3581 14.2772 12.7338 14.3792 12.2038 14.6864C11.6738 14.9936 11.2751 15.4848 11.0833 16.0666L10.7667 16.9999H8.63333L8.33333 16.0499C8.14154 15.4681 7.74281 14.977 7.21283 14.6697C6.68285 14.3625 6.05851 14.2606 5.45833 14.3832L4.47499 14.5832L3.39166 12.7416L4.05833 11.9916C4.46829 11.5332 4.69494 10.9399 4.69494 10.3249C4.69494 9.70997 4.46829 9.1166 4.05833 8.65825L3.39166 7.90825L4.45833 6.07491L5.44166 6.27491C6.04185 6.3976 6.66619 6.29565 7.19617 5.98841C7.72615 5.68118 8.12487 5.19005 8.31666 4.60825L8.63333 3.66658H10.7667L11.0833 4.61658C11.2751 5.19838 11.6738 5.68951 12.2038 5.99674C12.7338 6.30398 13.3581 6.40593 13.9583 6.28325L14.9417 6.08325L16.0083 7.93325L15.3417 8.68325C14.9363 9.14055 14.7125 9.73048 14.7125 10.3416C14.7125 10.9527 14.9363 11.5426 15.3417 11.9999ZM9.7 6.99991C9.04072 6.99991 8.39626 7.19541 7.84809 7.56168C7.29993 7.92795 6.87269 8.44855 6.6204 9.05763C6.3681 9.66672 6.30209 10.3369 6.43071 10.9835C6.55933 11.6302 6.8768 12.2241 7.34297 12.6903C7.80915 13.1564 8.40309 13.4739 9.04969 13.6025C9.6963 13.7311 10.3665 13.6651 10.9756 13.4128C11.5847 13.1606 12.1053 12.7333 12.4716 12.1851C12.8378 11.637 13.0333 10.9925 13.0333 10.3332C13.0333 9.44919 12.6821 8.60134 12.057 7.97622C11.4319 7.3511 10.5841 6.99991 9.7 6.99991ZM9.7 11.9999C9.37036 11.9999 9.04813 11.9022 8.77404 11.719C8.49996 11.5359 8.28634 11.2756 8.1602 10.9711C8.03405 10.6665 8.00104 10.3314 8.06535 10.0081C8.12966 9.68479 8.2884 9.38782 8.52148 9.15474C8.75457 8.92165 9.05154 8.76291 9.37484 8.6986C9.69815 8.6343 10.0333 8.6673 10.3378 8.79345C10.6423 8.91959 10.9026 9.13321 11.0858 9.4073C11.2689 9.68138 11.3667 10.0036 11.3667 10.3332C11.3667 10.7753 11.1911 11.1992 10.8785 11.5118C10.5659 11.8243 10.142 11.9999 9.7 11.9999Z" fill="white"/>
</svg>
