<svg width="72" height="60" viewBox="0 0 72 60" fill="none" xmlns="http://www.w3.org/2000/svg">
<path d="M19.5 50C14.94 50 11.05 48.6917 7.83 46.075C4.61 43.4417 3 40.2333 3 36.45C3 33.2 4.17 30.3 6.51 27.75C8.87 25.2 11.95 23.575 15.75 22.875C17.01 19.0417 19.51 15.9417 23.25 13.575C27.01 11.1917 31.26 10 36 10C41.86 10 46.82 11.7 50.88 15.1C54.96 18.4833 57 22.6167 57 27.5C60.46 27.8333 63.32 29.0833 65.58 31.25C67.86 33.3833 69 35.8833 69 38.75C69 41.8833 67.69 44.5417 65.07 46.725C62.45 48.9083 59.26 50 55.5 50H39C37.36 50 35.95 49.5083 34.77 48.525C33.59 47.5583 33 46.3833 33 45V32.125L28.2 36L24 32.5L36 22.5L48 32.5L43.8 36L39 32.125V45H55.5C57.6 45 59.37 44.3917 60.81 43.175C62.27 41.975 63 40.5 63 38.75C63 37 62.27 35.525 60.81 34.325C59.37 33.1083 57.6 32.5 55.5 32.5H51V27.5C51 24.05 49.54 21.1 46.62 18.65C43.7 16.2167 40.16 15 36 15C31.86 15 28.32 16.2167 25.38 18.65C22.46 21.1 21 24.05 21 27.5H19.5C16.6 27.5 14.13 28.3583 12.09 30.075C10.03 31.775 9 33.8333 9 36.25C9 38.6667 10.03 40.75 12.09 42.5C14.13 44.1667 16.6 45 19.5 45H27V50" fill="#678983"/>
</svg>
