<svg width="81" height="83" viewBox="0 0 81 83" fill="none" xmlns="http://www.w3.org/2000/svg">
<path d="M16.1563 62.3251C19.5209 59.6709 23.2813 57.5775 27.4375 56.0449C31.5938 54.5123 35.9479 53.7474 40.5 53.7501C45.0521 53.7501 49.4063 54.5164 53.5625 56.049C57.7188 57.5816 61.4792 59.6736 64.8438 62.3251C67.1528 59.5348 68.9512 56.3702 70.239 52.8313C71.5268 49.2924 72.1693 45.5154 72.1667 41.5001C72.1667 32.4487 69.0831 24.7407 62.9161 18.3762C56.749 12.0116 49.277 8.83069 40.5 8.83341C31.7257 8.83341 24.2537 12.0143 18.084 18.3762C11.9143 24.738 8.83071 32.446 8.83335 41.5001C8.83335 45.5154 9.47724 49.2924 10.765 52.8313C12.0528 56.3702 13.8499 59.5348 16.1563 62.3251ZM40.5 45.5834C36.6077 45.5834 33.3249 44.206 30.6517 41.4511C27.9785 38.6962 26.6432 35.3097 26.6459 31.2917C26.6459 27.2765 27.9811 23.89 30.6517 21.1324C33.3222 18.3748 36.605 16.9974 40.5 17.0001C44.3924 17.0001 47.6752 18.3775 50.3484 21.1324C53.0215 23.8873 54.3568 27.2737 54.3542 31.2917C54.3542 35.307 53.0189 38.6935 50.3484 41.4511C47.6778 44.2087 44.395 45.5861 40.5 45.5834ZM40.5 82.3334C35.0243 82.3334 29.8785 81.2609 25.0625 79.1157C20.2465 76.9706 16.0573 74.0619 12.4948 70.3897C8.93231 66.7147 6.11266 62.3931 4.03585 57.4251C1.95905 52.457 0.919326 47.1487 0.916687 41.5001C0.916687 35.8515 1.95641 30.5431 4.03585 25.5751C6.1153 20.607 8.93495 16.2855 12.4948 12.6105C16.0573 8.9355 20.2465 6.0268 25.0625 3.88441C29.8785 1.74203 35.0243 0.66947 40.5 0.666748C45.9757 0.666748 51.1215 1.7393 55.9375 3.88441C60.7535 6.02953 64.9427 8.93822 68.5052 12.6105C72.0677 16.2855 74.8887 20.607 76.9681 25.5751C79.0476 30.5431 80.086 35.8515 80.0834 41.5001C80.0834 47.1487 79.0436 52.457 76.9642 57.4251C74.8847 62.3931 72.0651 66.7147 68.5052 70.3897C64.9427 74.0647 60.7535 76.9747 55.9375 79.1198C51.1215 81.2649 45.9757 82.3361 40.5 82.3334Z" fill="white"/>
</svg>
