<svg width="20" height="19" viewBox="0 0 20 19" fill="none" xmlns="http://www.w3.org/2000/svg">
<path d="M16.3636 18.3333H3.63636C3.39526 18.3333 3.16403 18.2367 2.99354 18.0649C2.82305 17.8931 2.72727 17.6601 2.72727 17.4171V9.17218H0L9.38818 0.571767C9.55556 0.418299 9.77371 0.333252 10 0.333252C10.2263 0.333252 10.4444 0.418299 10.6118 0.571767L20 9.17218H17.2727V17.4171C17.2727 17.6601 17.1769 17.8931 17.0065 18.0649C16.836 18.2367 16.6047 18.3333 16.3636 18.3333ZM10.9091 16.501H15.4545V7.4838L10 2.48735L4.54545 7.4838V16.501H9.09091V11.0044H10.9091V16.501Z" fill="white"/>
</svg>
