<svg width="34" height="35" viewBox="0 0 34 35" fill="none" xmlns="http://www.w3.org/2000/svg">
<path d="M30.6667 18.6C30.3995 18.2958 30.2521 17.9048 30.2521 17.5C30.2521 17.0951 30.3995 16.7041 30.6667 16.4L32.8 14C33.0351 13.7378 33.181 13.4078 33.217 13.0575C33.2529 12.7072 33.1769 12.3545 33 12.05L29.6667 6.28332C29.4915 5.97919 29.2248 5.73812 28.9046 5.59447C28.5844 5.45081 28.227 5.41192 27.8833 5.48332L24.75 6.11665C24.3513 6.19904 23.9362 6.13264 23.5831 5.92999C23.23 5.72734 22.9633 5.40246 22.8333 5.01666L21.8167 1.96665C21.7048 1.63562 21.4918 1.3481 21.2077 1.14472C20.9236 0.941353 20.5827 0.832419 20.2333 0.833321H13.5667C13.2032 0.814351 12.8435 0.914865 12.5426 1.11951C12.2416 1.32416 12.016 1.62169 11.9 1.96665L10.9667 5.01666C10.8367 5.40246 10.5699 5.72734 10.2168 5.92999C9.86375 6.13264 9.44869 6.19904 9.04999 6.11665L5.83332 5.48332C5.50757 5.43729 5.17549 5.48869 4.8789 5.63105C4.58231 5.77342 4.33449 6.00037 4.16666 6.28332L0.833323 12.05C0.651923 12.3511 0.57036 12.7018 0.600294 13.052C0.630228 13.4023 0.770127 13.7341 0.99999 14L3.11666 16.4C3.38386 16.7041 3.53121 17.0951 3.53121 17.5C3.53121 17.9048 3.38386 18.2958 3.11666 18.6L0.99999 21C0.770127 21.2659 0.630228 21.5977 0.600294 21.9479C0.57036 22.2982 0.651923 22.6489 0.833323 22.95L4.16666 28.7167C4.34182 29.0208 4.60852 29.2619 4.92874 29.4055C5.24897 29.5492 5.60636 29.5881 5.94999 29.5167L9.08332 28.8833C9.48202 28.8009 9.89708 28.8673 10.2502 29.07C10.6033 29.2726 10.87 29.5975 11 29.9833L12.0167 33.0333C12.1326 33.3783 12.3583 33.6758 12.6593 33.8805C12.9602 34.0851 13.3199 34.1856 13.6833 34.1667H20.35C20.6994 34.1676 21.0403 34.0586 21.3244 33.8553C21.6085 33.6519 21.8215 33.3644 21.9333 33.0333L22.95 29.9833C23.08 29.5975 23.3467 29.2726 23.6998 29.07C24.0529 28.8673 24.468 28.8009 24.8667 28.8833L28 29.5167C28.3436 29.5881 28.701 29.5492 29.0212 29.4055C29.3415 29.2619 29.6082 29.0208 29.7833 28.7167L33.1167 22.95C33.2936 22.6455 33.3696 22.2928 33.3336 21.9425C33.2977 21.5921 33.1517 21.2622 32.9167 21L30.6667 18.6ZM28.1833 20.8333L29.5167 22.3333L27.3833 26.0333L25.4167 25.6333C24.2163 25.388 22.9676 25.5919 21.9076 26.2063C20.8477 26.8208 20.0502 27.8031 19.6667 28.9667L19.0333 30.8333H14.7667L14.1667 28.9333C13.7831 27.7697 12.9856 26.7875 11.9257 26.173C10.8657 25.5585 9.61703 25.3546 8.41666 25.6L6.44999 26L4.28332 22.3167L5.61666 20.8167C6.43658 19.9 6.88988 18.7132 6.88988 17.4833C6.88988 16.2534 6.43658 15.0667 5.61666 14.15L4.28332 12.65L6.41666 8.98332L8.38332 9.38332C9.58369 9.62869 10.8324 9.42479 11.8923 8.81032C12.9523 8.19585 13.7497 7.21359 14.1333 6.04999L14.7667 4.16665H19.0333L19.6667 6.06665C20.0502 7.23025 20.8477 8.21252 21.9076 8.82699C22.9676 9.44146 24.2163 9.64536 25.4167 9.39999L27.3833 8.99999L29.5167 12.7L28.1833 14.2C27.3726 15.1146 26.9249 16.2945 26.9249 17.5167C26.9249 18.7389 27.3726 19.9187 28.1833 20.8333ZM16.9 10.8333C15.5814 10.8333 14.2925 11.2243 13.1962 11.9569C12.0999 12.6894 11.2454 13.7306 10.7408 14.9488C10.2362 16.1669 10.1042 17.5074 10.3614 18.8006C10.6187 20.0938 11.2536 21.2817 12.1859 22.214C13.1183 23.1464 14.3062 23.7813 15.5994 24.0386C16.8926 24.2958 18.233 24.1638 19.4512 23.6592C20.6694 23.1546 21.7106 22.3001 22.4431 21.2038C23.1757 20.1075 23.5667 18.8185 23.5667 17.5C23.5667 15.7319 22.8643 14.0362 21.614 12.7859C20.3638 11.5357 18.6681 10.8333 16.9 10.8333ZM16.9 20.8333C16.2407 20.8333 15.5963 20.6378 15.0481 20.2716C14.4999 19.9053 14.0727 19.3847 13.8204 18.7756C13.5681 18.1665 13.5021 17.4963 13.6307 16.8497C13.7593 16.2031 14.0768 15.6091 14.543 15.143C15.0091 14.6768 15.6031 14.3593 16.2497 14.2307C16.8963 14.1021 17.5665 14.1681 18.1756 14.4204C18.7847 14.6727 19.3053 15.0999 19.6716 15.6481C20.0378 16.1963 20.2333 16.8407 20.2333 17.5C20.2333 18.384 19.8821 19.2319 19.257 19.857C18.6319 20.4821 17.784 20.8333 16.9 20.8333Z" fill="#0F1959" fill-opacity="0.5"/>
</svg>
