<svg width="35" height="35" viewBox="0 0 35 35" fill="none" xmlns="http://www.w3.org/2000/svg">
<path d="M7.94165 3.84504L9.85332 6.57671C7.53029 8.20299 5.78625 10.5275 4.87455 13.2127C3.96285 15.8979 3.93098 18.8038 4.78357 21.5083C5.63616 24.2128 7.3288 26.575 9.6156 28.2519C11.9024 29.9287 14.6643 30.8328 17.5 30.8328C20.3357 30.8328 23.0976 29.9287 25.3844 28.2519C27.6712 26.575 29.3638 24.2128 30.2164 21.5083C31.069 18.8038 31.0371 15.8979 30.1254 13.2127C29.2137 10.5275 27.4697 8.20299 25.1467 6.57671L27.0583 3.84504C29.2549 5.38075 31.0482 7.42414 32.2858 9.80149C33.5233 12.1788 34.1686 14.8199 34.1667 17.5C34.1667 26.705 26.705 34.1667 17.5 34.1667C8.29499 34.1667 0.833317 26.705 0.833317 17.5C0.831387 14.8199 1.47663 12.1788 2.7142 9.80149C3.95177 7.42414 5.74507 5.38075 7.94165 3.84504ZM15.8333 17.5V0.833374H19.1667V17.5H15.8333Z" fill="#0F1959" fill-opacity="0.5"/>
</svg>
