<svg width="41" height="40" viewBox="0 0 41 40" fill="none" xmlns="http://www.w3.org/2000/svg">
<g clip-path="url(#clip0_2111_1363)">
<path d="M14.0584 -8.81402e-06C13.702 0.0677796 13.381 0.259348 13.1522 0.540858C12.9233 0.822367 12.8013 1.1757 12.8077 1.53845V3.07691H7.27843C6.04766 3.07691 5.11536 4.00922 5.11536 5.23999V37.6923C5.11536 39.0769 6.04766 40 7.27843 40H33.5769C34.8077 40 35.74 39.0677 35.74 37.8369V5.23999C35.8938 4.00922 34.9523 3.07691 33.7215 3.07691H28.1923V1.53845C28.1923 1.13043 28.0302 0.739114 27.7417 0.450596C27.4532 0.162079 27.0618 -8.81402e-06 26.6538 -8.81402e-06H14.3461C14.2979 -0.00227571 14.2497 -0.00227571 14.2015 -8.81402e-06C14.1533 -0.00227571 14.1066 -0.00227571 14.0584 -8.81402e-06ZM15.8846 3.07691H25.1154V6.15384H15.8846V3.07691ZM8.19228 6.15384H12.8077V7.6923C12.8077 8.10033 12.9698 8.49164 13.2583 8.78016C13.5468 9.06867 13.9381 9.23076 14.3461 9.23076H26.6538C27.0618 9.23076 27.4532 9.06867 27.7417 8.78016C28.0302 8.49164 28.1923 8.10033 28.1923 7.6923V6.15384H32.8077V36.9231H8.19228V6.15384ZM11.2692 13.8461V20H17.423V13.8461H11.2692ZM12.8077 15.3846H15.8846V18.4615H12.8077V15.3846ZM20.5 15.3846V18.4615H29.7307V15.3846H20.5ZM11.2692 23.0769V29.2308H17.423V23.0769H11.2692ZM20.5 24.6154V27.6923H29.7307V24.6154H20.5Z" fill="#0F1959" fill-opacity="0.5"/>
<path d="M14.0584 -8.81402e-06C13.702 0.0677796 13.381 0.259348 13.1522 0.540858C12.9233 0.822367 12.8013 1.1757 12.8077 1.53845V3.07691H7.27843C6.04766 3.07691 5.11536 4.00922 5.11536 5.23999V37.6923C5.11536 39.0769 6.04766 40 7.27843 40H33.5769C34.8077 40 35.74 39.0677 35.74 37.8369V5.23999C35.8938 4.00922 34.9523 3.07691 33.7215 3.07691H28.1923V1.53845C28.1923 1.13043 28.0302 0.739114 27.7417 0.450596C27.4532 0.162079 27.0618 -8.81402e-06 26.6538 -8.81402e-06H14.3461C14.2979 -0.00227571 14.2497 -0.00227571 14.2015 -8.81402e-06C14.1533 -0.00227571 14.1066 -0.00227571 14.0584 -8.81402e-06ZM15.8846 3.07691H25.1154V6.15384H15.8846V3.07691ZM8.19228 6.15384H12.8077V7.6923C12.8077 8.10033 12.9698 8.49164 13.2583 8.78016C13.5468 9.06867 13.9381 9.23076 14.3461 9.23076H26.6538C27.0618 9.23076 27.4532 9.06867 27.7417 8.78016C28.0302 8.49164 28.1923 8.10033 28.1923 7.6923V6.15384H32.8077V36.9231H8.19228V6.15384ZM11.2692 13.8461V20H17.423V13.8461H11.2692ZM12.8077 15.3846H15.8846V18.4615H12.8077V15.3846ZM20.5 15.3846V18.4615H29.7307V15.3846H20.5ZM11.2692 23.0769V29.2308H17.423V23.0769H11.2692ZM20.5 24.6154V27.6923H29.7307V24.6154H20.5Z" fill="#0F1959" fill-opacity="0.5"/>
</g>
<defs>
<clipPath id="clip0_2111_1363">
<rect width="40" height="40" fill="white" transform="translate(0.5)"/>
</clipPath>
</defs>
</svg>
